{
	"asset":{
		"generator":"Khronos glTF Blender I/O v4.2.57",
		"version":"2.0"
	},
	"scene":0,
	"scenes":[
		{
			"name":"Scene",
			"nodes":[
				0
			]
		}
	],
	"nodes":[
		{
			"mesh":0,
			"name":"Cube",
			"translation":[
				0,
				-0.05239838361740112,
				0
			]
		}
	],
	"materials":[
		{
			"doubleSided":true,
			"name":"Material.001",
			"normalTexture":{
				"index":0
			},
			"pbrMetallicRoughness":{
				"baseColorTexture":{
					"index":1
				},
				"metallicFactor":0,
				"metallicRoughnessTexture":{
					"index":2
				}
			}
		}
	],
	"meshes":[
		{
			"name":"Cube.001",
			"primitives":[
				{
					"attributes":{
						"POSITION":0,
						"NORMAL":1,
						"TEXCOORD_0":2
					},
					"indices":3,
					"material":0
				}
			]
		}
	],
	"textures":[
		{
			"sampler":0,
			"source":0
		},
		{
			"sampler":0,
			"source":1
		},
		{
			"sampler":0,
			"source":2
		}
	],
	"images":[
		{
			"mimeType":"image/png",
			"name":"ship_hull_normal",
			"uri":"ship_hull_normal.png"
		},
		{
			"mimeType":"image/png",
			"name":"ship_hull_bright",
			"uri":"ship_hull_bright.png"
		},
		{
			"mimeType":"image/png",
			"name":"ship_hull_bright_roughness",
			"uri":"ship_hull_bright_roughness.png"
		}
	],
	"accessors":[
		{
			"bufferView":0,
			"componentType":5126,
			"count":56,
			"max":[
				0.788850724697113,
				0.6502134799957275,
				0.5306058526039124
			],
			"min":[
				-0.788850724697113,
				-0.1426646113395691,
				-0.5306058526039124
			],
			"type":"VEC3"
		},
		{
			"bufferView":1,
			"componentType":5126,
			"count":56,
			"type":"VEC3"
		},
		{
			"bufferView":2,
			"componentType":5126,
			"count":56,
			"type":"VEC2"
		},
		{
			"bufferView":3,
			"componentType":5123,
			"count":84,
			"type":"SCALAR"
		}
	],
	"bufferViews":[
		{
			"buffer":0,
			"byteLength":672,
			"byteOffset":0,
			"target":34962
		},
		{
			"buffer":0,
			"byteLength":672,
			"byteOffset":672,
			"target":34962
		},
		{
			"buffer":0,
			"byteLength":448,
			"byteOffset":1344,
			"target":34962
		},
		{
			"buffer":0,
			"byteLength":168,
			"byteOffset":1792,
			"target":34963
		}
	],
	"samplers":[
		{
			"magFilter":9729,
			"minFilter":9987
		}
	],
	"buffers":[
		{
			"byteLength":1960,
			"uri":"crate_square.bin"
		}
	]
}
