{
	"asset":{
		"generator":"Khronos glTF Blender I/O v4.4.56",
		"version":"2.0"
	},
	"scene":0,
	"scenes":[
		{
			"name":"Scene",
			"nodes":[
				0
			]
		}
	],
	"nodes":[
		{
			"mesh":0,
			"name":"Object_8",
			"rotation":[
				0.70710688829422,
				0,
				0,
				0.7071066498756409
			],
			"scale":[
				0.011358155868947506,
				0.011358155868947506,
				0.011358155868947506
			]
		}
	],
	"materials":[
		{
			"doubleSided":true,
			"name":"Bottom.001",
			"normalTexture":{
				"index":0
			},
			"pbrMetallicRoughness":{
				"baseColorTexture":{
					"index":1
				},
				"metallicFactor":0
			}
		}
	],
	"meshes":[
		{
			"name":"Object_1",
			"primitives":[
				{
					"attributes":{
						"POSITION":0,
						"NORMAL":1,
						"TEXCOORD_0":2,
						"TANGENT":3
					},
					"indices":4,
					"material":0
				}
			]
		}
	],
	"textures":[
		{
			"sampler":0,
			"source":0
		},
		{
			"sampler":0,
			"source":1
		}
	],
	"images":[
		{
			"mimeType":"image/png",
			"name":"Bottom_normal",
			"uri":"Bottom_normal.png"
		},
		{
			"mimeType":"image/png",
			"name":"Bottom_baseColor",
			"uri":"Bottom_baseColor.png"
		}
	],
	"accessors":[
		{
			"bufferView":0,
			"componentType":5126,
			"count":191,
			"max":[
				17.834672927856445,
				8.17022705078125,
				18.460922241210938
			],
			"min":[
				-19.637720108032227,
				-17.151247024536133,
				-10.865882873535156
			],
			"type":"VEC3"
		},
		{
			"bufferView":1,
			"componentType":5126,
			"count":191,
			"type":"VEC3"
		},
		{
			"bufferView":2,
			"componentType":5126,
			"count":191,
			"type":"VEC2"
		},
		{
			"bufferView":3,
			"componentType":5126,
			"count":191,
			"type":"VEC4"
		},
		{
			"bufferView":4,
			"componentType":5123,
			"count":597,
			"type":"SCALAR"
		}
	],
	"bufferViews":[
		{
			"buffer":0,
			"byteLength":2292,
			"byteOffset":0,
			"target":34962
		},
		{
			"buffer":0,
			"byteLength":2292,
			"byteOffset":2292,
			"target":34962
		},
		{
			"buffer":0,
			"byteLength":1528,
			"byteOffset":4584,
			"target":34962
		},
		{
			"buffer":0,
			"byteLength":3056,
			"byteOffset":6112,
			"target":34962
		},
		{
			"buffer":0,
			"byteLength":1194,
			"byteOffset":9168,
			"target":34963
		}
	],
	"samplers":[
		{
			"magFilter":9729,
			"minFilter":9987
		}
	],
	"buffers":[
		{
			"byteLength":10364,
			"uri":"gib_pelvis.bin"
		}
	]
}
