{
	"asset":{
		"generator":"Khronos glTF Blender I/O v4.4.56",
		"version":"2.0"
	},
	"scene":0,
	"scenes":[
		{
			"name":"Scene",
			"nodes":[
				0
			]
		}
	],
	"nodes":[
		{
			"mesh":0,
			"name":"Object_6.028",
			"rotation":[
				0.70710688829422,
				0,
				0,
				0.7071066498756409
			],
			"scale":[
				0.011358155868947506,
				0.011358155868947506,
				0.011358155868947506
			]
		}
	],
	"materials":[
		{
			"doubleSided":true,
			"name":"Body.001",
			"normalTexture":{
				"index":0
			},
			"pbrMetallicRoughness":{
				"baseColorTexture":{
					"index":1
				},
				"metallicFactor":0,
				"metallicRoughnessTexture":{
					"index":2
				}
			}
		}
	],
	"meshes":[
		{
			"name":"Object_0.028",
			"primitives":[
				{
					"attributes":{
						"POSITION":0,
						"NORMAL":1,
						"TEXCOORD_0":2
					},
					"indices":3,
					"material":0
				}
			]
		}
	],
	"textures":[
		{
			"sampler":0,
			"source":0
		},
		{
			"sampler":0,
			"source":1
		},
		{
			"sampler":0,
			"source":2
		}
	],
	"images":[
		{
			"mimeType":"image/png",
			"name":"Body_normal",
			"uri":"Body_normal.png"
		},
		{
			"mimeType":"image/png",
			"name":"Body_baseColor",
			"uri":"Body_baseColor.png"
		},
		{
			"mimeType":"image/png",
			"name":"Body_specular_f0",
			"uri":"Body_specular_f0.png"
		}
	],
	"accessors":[
		{
			"bufferView":0,
			"componentType":5126,
			"count":41,
			"max":[
				15.120357513427734,
				7.4572553634643555,
				4.27227783203125
			],
			"min":[
				-13.959287643432617,
				-5.8061113357543945,
				-6.9069976806640625
			],
			"type":"VEC3"
		},
		{
			"bufferView":1,
			"componentType":5126,
			"count":41,
			"type":"VEC3"
		},
		{
			"bufferView":2,
			"componentType":5126,
			"count":41,
			"type":"VEC2"
		},
		{
			"bufferView":3,
			"componentType":5123,
			"count":141,
			"type":"SCALAR"
		}
	],
	"bufferViews":[
		{
			"buffer":0,
			"byteLength":492,
			"byteOffset":0,
			"target":34962
		},
		{
			"buffer":0,
			"byteLength":492,
			"byteOffset":492,
			"target":34962
		},
		{
			"buffer":0,
			"byteLength":328,
			"byteOffset":984,
			"target":34962
		},
		{
			"buffer":0,
			"byteLength":282,
			"byteOffset":1312,
			"target":34963
		}
	],
	"samplers":[
		{
			"magFilter":9729,
			"minFilter":9987
		}
	],
	"buffers":[
		{
			"byteLength":1596,
			"uri":"gib_arm_1.bin"
		}
	]
}
