{
	"asset":{
		"generator":"Khronos glTF Blender I/O v4.4.56",
		"version":"2.0"
	},
	"scene":0,
	"scenes":[
		{
			"name":"Scene",
			"nodes":[
				0
			]
		}
	],
	"nodes":[
		{
			"mesh":0,
			"name":"Object_16",
			"rotation":[
				0.70710688829422,
				0,
				0,
				0.7071066498756409
			],
			"scale":[
				0.011358155868947506,
				0.011358155868947506,
				0.011358155868947506
			]
		}
	],
	"materials":[
		{
			"doubleSided":true,
			"name":"Shoes.001",
			"normalTexture":{
				"index":0
			},
			"pbrMetallicRoughness":{
				"baseColorTexture":{
					"index":1
				},
				"metallicFactor":0
			}
		},
		{
			"doubleSided":true,
			"name":"Body.001",
			"normalTexture":{
				"index":2
			},
			"pbrMetallicRoughness":{
				"baseColorTexture":{
					"index":3
				},
				"metallicFactor":0,
				"metallicRoughnessTexture":{
					"index":4
				}
			}
		}
	],
	"meshes":[
		{
			"name":"Object_5",
			"primitives":[
				{
					"attributes":{
						"POSITION":0,
						"NORMAL":1,
						"TEXCOORD_0":2,
						"TANGENT":3
					},
					"indices":4,
					"material":0
				},
				{
					"attributes":{
						"POSITION":5,
						"NORMAL":6,
						"TEXCOORD_0":7,
						"TANGENT":8
					},
					"indices":9,
					"material":1
				}
			]
		}
	],
	"textures":[
		{
			"sampler":0,
			"source":0
		},
		{
			"sampler":0,
			"source":1
		},
		{
			"sampler":0,
			"source":2
		},
		{
			"sampler":0,
			"source":3
		},
		{
			"sampler":0,
			"source":4
		}
	],
	"images":[
		{
			"mimeType":"image/png",
			"name":"Shoes_normal",
			"uri":"Shoes_normal.png"
		},
		{
			"mimeType":"image/png",
			"name":"Shoes_baseColor",
			"uri":"Shoes_baseColor.png"
		},
		{
			"mimeType":"image/png",
			"name":"Body_normal",
			"uri":"Body_normal.png"
		},
		{
			"mimeType":"image/png",
			"name":"Body_baseColor",
			"uri":"Body_baseColor.png"
		},
		{
			"mimeType":"image/png",
			"name":"Body_specular_f0",
			"uri":"Body_specular_f0.png"
		}
	],
	"accessors":[
		{
			"bufferView":0,
			"componentType":5126,
			"count":142,
			"max":[
				9.664493560791016,
				16.457691192626953,
				11.687508583068848
			],
			"min":[
				-2.8045198917388916,
				-15.191754341125488,
				-13.624942779541016
			],
			"type":"VEC3"
		},
		{
			"bufferView":1,
			"componentType":5126,
			"count":142,
			"type":"VEC3"
		},
		{
			"bufferView":2,
			"componentType":5126,
			"count":142,
			"type":"VEC2"
		},
		{
			"bufferView":3,
			"componentType":5126,
			"count":142,
			"type":"VEC4"
		},
		{
			"bufferView":4,
			"componentType":5123,
			"count":291,
			"type":"SCALAR"
		},
		{
			"bufferView":5,
			"componentType":5126,
			"count":19,
			"max":[
				6.550469875335693,
				-1.8196873664855957,
				-4.79740047454834
			],
			"min":[
				-0.4979548454284668,
				-10.475066184997559,
				-13.54251480102539
			],
			"type":"VEC3"
		},
		{
			"bufferView":6,
			"componentType":5126,
			"count":19,
			"type":"VEC3"
		},
		{
			"bufferView":7,
			"componentType":5126,
			"count":19,
			"type":"VEC2"
		},
		{
			"bufferView":8,
			"componentType":5126,
			"count":19,
			"type":"VEC4"
		},
		{
			"bufferView":9,
			"componentType":5123,
			"count":27,
			"type":"SCALAR"
		}
	],
	"bufferViews":[
		{
			"buffer":0,
			"byteLength":1704,
			"byteOffset":0,
			"target":34962
		},
		{
			"buffer":0,
			"byteLength":1704,
			"byteOffset":1704,
			"target":34962
		},
		{
			"buffer":0,
			"byteLength":1136,
			"byteOffset":3408,
			"target":34962
		},
		{
			"buffer":0,
			"byteLength":2272,
			"byteOffset":4544,
			"target":34962
		},
		{
			"buffer":0,
			"byteLength":582,
			"byteOffset":6816,
			"target":34963
		},
		{
			"buffer":0,
			"byteLength":228,
			"byteOffset":7400,
			"target":34962
		},
		{
			"buffer":0,
			"byteLength":228,
			"byteOffset":7628,
			"target":34962
		},
		{
			"buffer":0,
			"byteLength":152,
			"byteOffset":7856,
			"target":34962
		},
		{
			"buffer":0,
			"byteLength":304,
			"byteOffset":8008,
			"target":34962
		},
		{
			"buffer":0,
			"byteLength":54,
			"byteOffset":8312,
			"target":34963
		}
	],
	"samplers":[
		{
			"magFilter":9729,
			"minFilter":9987
		}
	],
	"buffers":[
		{
			"byteLength":8368,
			"uri":"gib_foot.bin"
		}
	]
}
