{
	"asset":{
		"generator":"Khronos glTF Blender I/O v4.4.56",
		"version":"2.0"
	},
	"scene":0,
	"scenes":[
		{
			"name":"Scene",
			"nodes":[
				0
			]
		}
	],
	"nodes":[
		{
			"mesh":0,
			"name":"Object_6.007",
			"rotation":[
				0.70710688829422,
				0,
				0,
				0.7071066498756409
			],
			"scale":[
				0.011358155868947506,
				0.011358155868947506,
				0.011358155868947506
			]
		}
	],
	"materials":[
		{
			"doubleSided":true,
			"name":"Body.001",
			"normalTexture":{
				"index":0
			},
			"pbrMetallicRoughness":{
				"baseColorTexture":{
					"index":1
				},
				"metallicFactor":0,
				"metallicRoughnessTexture":{
					"index":2
				}
			}
		},
		{
			"doubleSided":true,
			"name":"Hair.001",
			"normalTexture":{
				"index":3
			},
			"pbrMetallicRoughness":{
				"baseColorTexture":{
					"index":4
				},
				"metallicFactor":0
			}
		}
	],
	"meshes":[
		{
			"name":"Object_0.007",
			"primitives":[
				{
					"attributes":{
						"POSITION":0,
						"NORMAL":1,
						"TEXCOORD_0":2,
						"TANGENT":3
					},
					"indices":4,
					"material":0
				},
				{
					"attributes":{
						"POSITION":5,
						"NORMAL":6,
						"TEXCOORD_0":7,
						"TANGENT":8
					},
					"indices":9,
					"material":1
				}
			]
		}
	],
	"textures":[
		{
			"sampler":0,
			"source":0
		},
		{
			"sampler":0,
			"source":1
		},
		{
			"sampler":0,
			"source":2
		},
		{
			"sampler":0,
			"source":3
		},
		{
			"sampler":0,
			"source":4
		}
	],
	"images":[
		{
			"mimeType":"image/png",
			"name":"Body_normal",
			"uri":"Body_normal.png"
		},
		{
			"mimeType":"image/png",
			"name":"Body_baseColor",
			"uri":"Body_baseColor.png"
		},
		{
			"mimeType":"image/png",
			"name":"Body_specular_f0",
			"uri":"Body_specular_f0.png"
		},
		{
			"mimeType":"image/png",
			"name":"Hair_normal",
			"uri":"Hair_normal.png"
		},
		{
			"mimeType":"image/png",
			"name":"Hair_baseColor",
			"uri":"Hair_baseColor.png"
		}
	],
	"accessors":[
		{
			"bufferView":0,
			"componentType":5126,
			"count":184,
			"max":[
				9.442666053771973,
				11.74862003326416,
				20.368331909179688
			],
			"min":[
				-9.539362907409668,
				-9.000815391540527,
				-8.138412475585938
			],
			"type":"VEC3"
		},
		{
			"bufferView":1,
			"componentType":5126,
			"count":184,
			"type":"VEC3"
		},
		{
			"bufferView":2,
			"componentType":5126,
			"count":184,
			"type":"VEC2"
		},
		{
			"bufferView":3,
			"componentType":5126,
			"count":184,
			"type":"VEC4"
		},
		{
			"bufferView":4,
			"componentType":5123,
			"count":543,
			"type":"SCALAR"
		},
		{
			"bufferView":5,
			"componentType":5126,
			"count":915,
			"max":[
				8.117380142211914,
				10.759422302246094,
				9.525833129882812
			],
			"min":[
				-8.703222274780273,
				-9.458731651306152,
				-8.562255859375
			],
			"type":"VEC3"
		},
		{
			"bufferView":6,
			"componentType":5126,
			"count":915,
			"type":"VEC3"
		},
		{
			"bufferView":7,
			"componentType":5126,
			"count":915,
			"type":"VEC2"
		},
		{
			"bufferView":8,
			"componentType":5126,
			"count":915,
			"type":"VEC4"
		},
		{
			"bufferView":9,
			"componentType":5123,
			"count":1143,
			"type":"SCALAR"
		}
	],
	"bufferViews":[
		{
			"buffer":0,
			"byteLength":2208,
			"byteOffset":0,
			"target":34962
		},
		{
			"buffer":0,
			"byteLength":2208,
			"byteOffset":2208,
			"target":34962
		},
		{
			"buffer":0,
			"byteLength":1472,
			"byteOffset":4416,
			"target":34962
		},
		{
			"buffer":0,
			"byteLength":2944,
			"byteOffset":5888,
			"target":34962
		},
		{
			"buffer":0,
			"byteLength":1086,
			"byteOffset":8832,
			"target":34963
		},
		{
			"buffer":0,
			"byteLength":10980,
			"byteOffset":9920,
			"target":34962
		},
		{
			"buffer":0,
			"byteLength":10980,
			"byteOffset":20900,
			"target":34962
		},
		{
			"buffer":0,
			"byteLength":7320,
			"byteOffset":31880,
			"target":34962
		},
		{
			"buffer":0,
			"byteLength":14640,
			"byteOffset":39200,
			"target":34962
		},
		{
			"buffer":0,
			"byteLength":2286,
			"byteOffset":53840,
			"target":34963
		}
	],
	"samplers":[
		{
			"magFilter":9729,
			"minFilter":9987
		}
	],
	"buffers":[
		{
			"byteLength":56128,
			"uri":"gib_head.bin"
		}
	]
}
