{
	"asset":{
		"generator":"Khronos glTF Blender I/O v4.4.56",
		"version":"2.0"
	},
	"scene":0,
	"scenes":[
		{
			"name":"Scene",
			"nodes":[
				5
			]
		}
	],
	"nodes":[
		{
			"mesh":0,
			"name":"PABody&Barrel",
			"rotation":[
				0.7071068286895752,
				0,
				0,
				0.7071068286895752
			]
		},
		{
			"mesh":1,
			"name":"Pump.001",
			"rotation":[
				0.7071068286895752,
				0,
				0,
				0.7071068286895752
			]
		},
		{
			"mesh":2,
			"name":"ShellLowPolyGreen.002",
			"rotation":[
				0.7071068286895752,
				0,
				0,
				0.7071068286895752
			]
		},
		{
			"mesh":3,
			"name":"ShellLowPolyRed.002",
			"rotation":[
				0.7071068286895752,
				0,
				0,
				0.7071068286895752
			]
		},
		{
			"mesh":4,
			"name":"Trigger",
			"rotation":[
				0.7071068286895752,
				0,
				0,
				0.7071068286895752
			]
		},
		{
			"children":[
				0,
				1,
				2,
				3,
				4
			],
			"name":"Gun",
			"rotation":[
				0,
				-0.7071068286895752,
				0,
				0.7071068286895752
			],
			"translation":[
				0.48646634817123413,
				-1.1428231000900269,
				2.0433030128479004
			]
		}
	],
	"materials":[
		{
			"doubleSided":true,
			"name":"Gun",
			"pbrMetallicRoughness":{
				"baseColorTexture":{
					"index":0
				},
				"metallicFactor":0,
				"roughnessFactor":0.5
			}
		},
		{
			"doubleSided":true,
			"name":"Bullets",
			"pbrMetallicRoughness":{
				"baseColorTexture":{
					"index":1
				},
				"metallicFactor":0,
				"roughnessFactor":0.5
			}
		}
	],
	"meshes":[
		{
			"name":"PABody&Barrel",
			"primitives":[
				{
					"attributes":{
						"POSITION":0,
						"NORMAL":1,
						"TEXCOORD_0":2,
						"TANGENT":3
					},
					"indices":4,
					"material":0
				}
			]
		},
		{
			"name":"Pump.001",
			"primitives":[
				{
					"attributes":{
						"POSITION":5,
						"NORMAL":6,
						"TEXCOORD_0":7,
						"TANGENT":8
					},
					"indices":9,
					"material":0
				}
			]
		},
		{
			"name":"ShellLowPolyGreen.002",
			"primitives":[
				{
					"attributes":{
						"POSITION":10,
						"NORMAL":11,
						"TEXCOORD_0":12,
						"TANGENT":13
					},
					"indices":14,
					"material":1
				}
			]
		},
		{
			"name":"ShellLowPolyRed.002",
			"primitives":[
				{
					"attributes":{
						"POSITION":15,
						"NORMAL":16,
						"TEXCOORD_0":17,
						"TANGENT":18
					},
					"indices":19,
					"material":1
				}
			]
		},
		{
			"name":"Trigger",
			"primitives":[
				{
					"attributes":{
						"POSITION":20,
						"NORMAL":21,
						"TEXCOORD_0":22,
						"TANGENT":23
					},
					"indices":24,
					"material":0
				}
			]
		}
	],
	"textures":[
		{
			"sampler":0,
			"source":0
		},
		{
			"sampler":0,
			"source":1
		}
	],
	"images":[
		{
			"mimeType":"image/png",
			"name":"PAShotgunText",
			"uri":"PAShotgunText.png"
		},
		{
			"mimeType":"image/jpeg",
			"name":"shotgunShellTexture",
			"uri":"shotgunShellTexture.jpg"
		}
	],
	"accessors":[
		{
			"bufferView":0,
			"componentType":5126,
			"count":272,
			"max":[
				2.277070999145508,
				0.10430099815130234,
				-0.10784000158309937
			],
			"min":[
				-2.2628419399261475,
				-0.10429900139570236,
				-0.863735020160675
			],
			"type":"VEC3"
		},
		{
			"bufferView":1,
			"componentType":5126,
			"count":272,
			"type":"VEC3"
		},
		{
			"bufferView":2,
			"componentType":5126,
			"count":272,
			"type":"VEC2"
		},
		{
			"bufferView":3,
			"componentType":5126,
			"count":272,
			"type":"VEC4"
		},
		{
			"bufferView":4,
			"componentType":5123,
			"count":396,
			"type":"SCALAR"
		},
		{
			"bufferView":5,
			"componentType":5126,
			"count":52,
			"max":[
				1.0130620002746582,
				0.06205099821090698,
				-0.5981150269508362
			],
			"min":[
				0.16603200137615204,
				-0.06204900145530701,
				-0.7992749810218811
			],
			"type":"VEC3"
		},
		{
			"bufferView":6,
			"componentType":5126,
			"count":52,
			"type":"VEC3"
		},
		{
			"bufferView":7,
			"componentType":5126,
			"count":52,
			"type":"VEC2"
		},
		{
			"bufferView":8,
			"componentType":5126,
			"count":52,
			"type":"VEC4"
		},
		{
			"bufferView":9,
			"componentType":5123,
			"count":72,
			"type":"SCALAR"
		},
		{
			"bufferView":10,
			"componentType":5126,
			"count":44,
			"max":[
				-0.5275890231132507,
				0.02403300069272518,
				-0.33731698989868164
			],
			"min":[
				-0.5756530165672302,
				-0.024031000211834908,
				-0.5176309943199158
			],
			"type":"VEC3"
		},
		{
			"bufferView":11,
			"componentType":5126,
			"count":44,
			"type":"VEC3"
		},
		{
			"bufferView":12,
			"componentType":5126,
			"count":44,
			"type":"VEC2"
		},
		{
			"bufferView":13,
			"componentType":5126,
			"count":44,
			"type":"VEC4"
		},
		{
			"bufferView":14,
			"componentType":5123,
			"count":60,
			"type":"SCALAR"
		},
		{
			"bufferView":15,
			"componentType":5126,
			"count":44,
			"max":[
				-0.467739999294281,
				0.024251999333500862,
				-0.33713498711586
			],
			"min":[
				-0.5162410140037537,
				-0.0242490004748106,
				-0.5177010297775269
			],
			"type":"VEC3"
		},
		{
			"bufferView":16,
			"componentType":5126,
			"count":44,
			"type":"VEC3"
		},
		{
			"bufferView":17,
			"componentType":5126,
			"count":44,
			"type":"VEC2"
		},
		{
			"bufferView":18,
			"componentType":5126,
			"count":44,
			"type":"VEC4"
		},
		{
			"bufferView":19,
			"componentType":5123,
			"count":60,
			"type":"SCALAR"
		},
		{
			"bufferView":20,
			"componentType":5126,
			"count":10,
			"max":[
				-0.8507680296897888,
				9.999999974752427e-07,
				-0.5306950211524963
			],
			"min":[
				-0.9014760255813599,
				9.999999974752427e-07,
				-0.6651970148086548
			],
			"type":"VEC3"
		},
		{
			"bufferView":21,
			"componentType":5126,
			"count":10,
			"type":"VEC3"
		},
		{
			"bufferView":22,
			"componentType":5126,
			"count":10,
			"type":"VEC2"
		},
		{
			"bufferView":23,
			"componentType":5126,
			"count":10,
			"type":"VEC4"
		},
		{
			"bufferView":24,
			"componentType":5123,
			"count":18,
			"type":"SCALAR"
		}
	],
	"bufferViews":[
		{
			"buffer":0,
			"byteLength":3264,
			"byteOffset":0,
			"target":34962
		},
		{
			"buffer":0,
			"byteLength":3264,
			"byteOffset":3264,
			"target":34962
		},
		{
			"buffer":0,
			"byteLength":2176,
			"byteOffset":6528,
			"target":34962
		},
		{
			"buffer":0,
			"byteLength":4352,
			"byteOffset":8704,
			"target":34962
		},
		{
			"buffer":0,
			"byteLength":792,
			"byteOffset":13056,
			"target":34963
		},
		{
			"buffer":0,
			"byteLength":624,
			"byteOffset":13848,
			"target":34962
		},
		{
			"buffer":0,
			"byteLength":624,
			"byteOffset":14472,
			"target":34962
		},
		{
			"buffer":0,
			"byteLength":416,
			"byteOffset":15096,
			"target":34962
		},
		{
			"buffer":0,
			"byteLength":832,
			"byteOffset":15512,
			"target":34962
		},
		{
			"buffer":0,
			"byteLength":144,
			"byteOffset":16344,
			"target":34963
		},
		{
			"buffer":0,
			"byteLength":528,
			"byteOffset":16488,
			"target":34962
		},
		{
			"buffer":0,
			"byteLength":528,
			"byteOffset":17016,
			"target":34962
		},
		{
			"buffer":0,
			"byteLength":352,
			"byteOffset":17544,
			"target":34962
		},
		{
			"buffer":0,
			"byteLength":704,
			"byteOffset":17896,
			"target":34962
		},
		{
			"buffer":0,
			"byteLength":120,
			"byteOffset":18600,
			"target":34963
		},
		{
			"buffer":0,
			"byteLength":528,
			"byteOffset":18720,
			"target":34962
		},
		{
			"buffer":0,
			"byteLength":528,
			"byteOffset":19248,
			"target":34962
		},
		{
			"buffer":0,
			"byteLength":352,
			"byteOffset":19776,
			"target":34962
		},
		{
			"buffer":0,
			"byteLength":704,
			"byteOffset":20128,
			"target":34962
		},
		{
			"buffer":0,
			"byteLength":120,
			"byteOffset":20832,
			"target":34963
		},
		{
			"buffer":0,
			"byteLength":120,
			"byteOffset":20952,
			"target":34962
		},
		{
			"buffer":0,
			"byteLength":120,
			"byteOffset":21072,
			"target":34962
		},
		{
			"buffer":0,
			"byteLength":80,
			"byteOffset":21192,
			"target":34962
		},
		{
			"buffer":0,
			"byteLength":160,
			"byteOffset":21272,
			"target":34962
		},
		{
			"buffer":0,
			"byteLength":36,
			"byteOffset":21432,
			"target":34963
		}
	],
	"samplers":[
		{
			"magFilter":9729,
			"minFilter":9987
		}
	],
	"buffers":[
		{
			"byteLength":21468,
			"uri":"pump_action_shotgun.bin"
		}
	]
}
